<svg viewBox="0 0 72 72" xmlns="http://www.w3.org/2000/svg"><path d="m22.87 30.1262c-.01 0-.02-.02-.02-.02a4.3973 4.3973 0 0 1 -.52-.36c-.01-.01-.02-.01-.03-.02a6.0978 6.0978 0 0 1 -1.83-2.6 5.9978 5.9978 0 0 1 3.16-7.51 3.9769 3.9769 0 0 1 6.76-2.13 5.015 5.015 0 0 1 2.72-2.41 4.9237 4.9237 0 0 1 3.28-.02 4.9749 4.9749 0 0 1 7.3-5.21 7.9429 7.9429 0 0 1 2.83-1.77 7.846 7.846 0 0 1 2.67-.48 5.88 5.88 0 0 1 2.03-1.23 6.0027 6.0027 0 0 1 7.69 3.58c.06.17.11.34.16.52a3.5285 3.5285 0 0 1 .56.14 3.9477 3.9477 0 0 1 2.53 2.42 4.0017 4.0017 0 0 1 -2.39 5.12 3.9424 3.9424 0 0 1 -2.91-.08 7.9818 7.9818 0 0 1 -9.79 5.21 4.96 4.96 0 0 1 -8.71 2.36 4.9417 4.9417 0 0 1 -6.82 1.99 5.9139 5.9139 0 0 1 -2.06 2.41" fill="#fff"/><path d="m22.87 30.1262c-.01 0-.02-.02-.02-.02a4.3973 4.3973 0 0 1 -.52-.36c-.01-.01-.02-.01-.03-.02a6.0978 6.0978 0 0 1 -1.83-2.6 5.9978 5.9978 0 0 1 3.16-7.51 3.9769 3.9769 0 0 1 6.76-2.13 5.015 5.015 0 0 1 2.72-2.41 4.9237 4.9237 0 0 1 3.28-.02 4.9749 4.9749 0 0 1 7.3-5.21 7.9429 7.9429 0 0 1 2.83-1.77 7.846 7.846 0 0 1 2.67-.48 5.88 5.88 0 0 1 2.03-1.23 6.0027 6.0027 0 0 1 7.69 3.58c.06.17.11.34.16.52a3.5285 3.5285 0 0 1 .56.14 3.9477 3.9477 0 0 1 2.53 2.42 4.0017 4.0017 0 0 1 -2.39 5.12 3.9424 3.9424 0 0 1 -2.91-.08 7.9818 7.9818 0 0 1 -9.79 5.21 4.96 4.96 0 0 1 -8.71 2.36 4.9417 4.9417 0 0 1 -6.82 1.99 5.9139 5.9139 0 0 1 -2.06 2.41" fill="#fff"/><path d="m70.24 10.5062a.8469.8469 0 0 0 -.17-.04c-.01-.05-.03-.1-.04-.14a1.68 1.68 0 0 1 .21.18z" fill="#9b9b9a"/><path d="m51 27h6v39h-6z" fill="#fff"/><path d="m47 47.2622a7.946 7.946 0 0 0 -8.1866 2.667c-1.1117-7.2961-1.1712-15.1315.3836-19.9292h-6.197v36h14z" fill="#9b9b9a"/><path d="m33 66v-36h-17c3 9.2571 0 29.8286-5 36z" fill="#d0cfce"/><path d="m47 47.2622v18.7378h6v-11a7.9959 7.9959 0 0 0 -6-7.7378z" fill="#3f3f3f"/><path d="m51 31h6v4h-6z" fill="#ea5a47"/><g fill="none" stroke="#000" stroke-linecap="round" stroke-linejoin="round" stroke-width="2"><path d="m22.87 30c-.01 0-.02-.02-.02-.02a4.3973 4.3973 0 0 1 -.52-.36c-.01-.01-.02-.01-.03-.02a6.0978 6.0978 0 0 1 -1.83-2.6 5.9978 5.9978 0 0 1 3.16-7.51 3.9769 3.9769 0 0 1 6.76-2.13 5.015 5.015 0 0 1 2.72-2.41 4.9237 4.9237 0 0 1 3.28-.02 4.9749 4.9749 0 0 1 7.3-5.21 7.9429 7.9429 0 0 1 2.83-1.77 7.846 7.846 0 0 1 2.67-.48 5.88 5.88 0 0 1 2.03-1.23 6.0027 6.0027 0 0 1 7.69 3.58c.06.17.11.34.16.52a3.5285 3.5285 0 0 1 .56.14 3.9477 3.9477 0 0 1 2.53 2.42 4.0017 4.0017 0 0 1 -2.39 5.12 3.9424 3.9424 0 0 1 -2.91-.08 7.9818 7.9818 0 0 1 -9.79 5.21 4.96 4.96 0 0 1 -8.71 2.36 4.9417 4.9417 0 0 1 -6.82 1.99 5.9139 5.9139 0 0 1 -2.06 2.41"/><path d="m44.1969 66c-5-6.1714-8-26.7429-5-36h-23.1969c3 9.2571 0 29.8286-5 36z"/><path d="m53 66h4v-39h-6v22.721"/><path d="m44.197 66h8.803v-11a7.9993 7.9993 0 0 0 -14.1866-5.0708"/></g></svg>